<mxfile host="65bd71144e">
    <diagram name="Page-1" id="3dGKkttWvciUG5SP4v-y">
        <mxGraphModel dx="1114" dy="1699" grid="1" gridSize="10" guides="1" tooltips="1" connect="1" arrows="1" fold="1" page="1" pageScale="1" pageWidth="850" pageHeight="1100" math="0" shadow="0">
            <root>
                <mxCell id="0"/>
                <mxCell id="1" parent="0"/>
                <mxCell id="Zqey19DjZnMujm0gZ4vc-40" value="Question" style="swimlane;childLayout=stackLayout;horizontal=1;startSize=50;horizontalStack=0;rounded=1;fontSize=14;fontStyle=0;strokeWidth=2;resizeParent=0;resizeLast=1;shadow=0;dashed=0;align=center;arcSize=4;whiteSpace=wrap;html=1;" parent="1" vertex="1">
                    <mxGeometry x="30" y="330" width="160" height="120" as="geometry"/>
                </mxCell>
                <mxCell id="Zqey19DjZnMujm0gZ4vc-41" value="+ (PK) question_id&lt;br&gt;+ type&lt;br&gt;+ header&lt;div&gt;+ description&lt;/div&gt;" style="align=left;strokeColor=none;fillColor=none;spacingLeft=4;spacingRight=4;fontSize=12;verticalAlign=top;resizable=0;rotatable=0;part=1;html=1;whiteSpace=wrap;" parent="Zqey19DjZnMujm0gZ4vc-40" vertex="1">
                    <mxGeometry y="50" width="160" height="70" as="geometry"/>
                </mxCell>
                <mxCell id="Zqey19DjZnMujm0gZ4vc-42" value="Result" style="swimlane;childLayout=stackLayout;horizontal=1;startSize=50;horizontalStack=0;rounded=1;fontSize=14;fontStyle=0;strokeWidth=2;resizeParent=0;resizeLast=1;shadow=0;dashed=0;align=center;arcSize=4;whiteSpace=wrap;html=1;" parent="1" vertex="1">
                    <mxGeometry x="300" y="120" width="160" height="120" as="geometry"/>
                </mxCell>
                <mxCell id="Zqey19DjZnMujm0gZ4vc-43" value="+ (PK) result_id&lt;div&gt;&lt;font color=&quot;#000000&quot;&gt;+ (FK) survey_id&lt;/font&gt;&lt;/div&gt;&lt;div&gt;+ IP&lt;/div&gt;&lt;div&gt;+ submitted_date&lt;/div&gt;" style="align=left;strokeColor=none;fillColor=none;spacingLeft=4;spacingRight=4;fontSize=12;verticalAlign=top;resizable=0;rotatable=0;part=1;html=1;whiteSpace=wrap;" parent="Zqey19DjZnMujm0gZ4vc-42" vertex="1">
                    <mxGeometry y="50" width="160" height="70" as="geometry"/>
                </mxCell>
                <mxCell id="Zqey19DjZnMujm0gZ4vc-44" value="Answer" style="swimlane;childLayout=stackLayout;horizontal=1;startSize=50;horizontalStack=0;rounded=1;fontSize=14;fontStyle=0;strokeWidth=2;resizeParent=0;resizeLast=1;shadow=0;dashed=0;align=center;arcSize=4;whiteSpace=wrap;html=1;" parent="1" vertex="1">
                    <mxGeometry x="30" y="540" width="160" height="140" as="geometry"/>
                </mxCell>
                <mxCell id="Zqey19DjZnMujm0gZ4vc-45" value="+ (PK) answer_id&lt;div&gt;&lt;font color=&quot;#000000&quot;&gt;+ (FK) question_id&lt;br&gt;&lt;/font&gt;+ name&lt;br&gt;+ description&lt;/div&gt;&lt;div&gt;+ order&lt;/div&gt;" style="align=left;strokeColor=none;fillColor=none;spacingLeft=4;spacingRight=4;fontSize=12;verticalAlign=top;resizable=0;rotatable=0;part=1;html=1;whiteSpace=wrap;" parent="Zqey19DjZnMujm0gZ4vc-44" vertex="1">
                    <mxGeometry y="50" width="160" height="90" as="geometry"/>
                </mxCell>
                <mxCell id="Zqey19DjZnMujm0gZ4vc-46" value="Survey" style="swimlane;childLayout=stackLayout;horizontal=1;startSize=50;horizontalStack=0;rounded=1;fontSize=14;fontStyle=0;strokeWidth=2;resizeParent=0;resizeLast=1;shadow=0;dashed=0;align=center;arcSize=4;whiteSpace=wrap;html=1;" parent="1" vertex="1">
                    <mxGeometry x="30" y="101.25" width="160" height="157.5" as="geometry"/>
                </mxCell>
                <mxCell id="Zqey19DjZnMujm0gZ4vc-47" value="+ (PK) survey_id&lt;div&gt;&lt;font color=&quot;#000000&quot;&gt;+ (FK) user_id&lt;/font&gt;&lt;/div&gt;&lt;div&gt;&lt;font color=&quot;#000000&quot;&gt;+ (FK) organization_id&lt;br&gt;&lt;/font&gt;+ title&lt;br&gt;+ description&lt;/div&gt;&lt;div&gt;+ start_date&lt;/div&gt;&lt;div&gt;+ end_date&lt;/div&gt;" style="align=left;strokeColor=none;fillColor=none;spacingLeft=4;spacingRight=4;fontSize=12;verticalAlign=top;resizable=0;rotatable=0;part=1;html=1;whiteSpace=wrap;" parent="Zqey19DjZnMujm0gZ4vc-46" vertex="1">
                    <mxGeometry y="50" width="160" height="107.5" as="geometry"/>
                </mxCell>
                <mxCell id="Zqey19DjZnMujm0gZ4vc-48" style="edgeStyle=orthogonalEdgeStyle;rounded=0;orthogonalLoop=1;jettySize=auto;html=1;endArrow=ERzeroToMany;endFill=0;startArrow=ERone;startFill=0;startSize=15;endSize=15;" parent="1" source="Zqey19DjZnMujm0gZ4vc-40" target="Zqey19DjZnMujm0gZ4vc-44" edge="1">
                    <mxGeometry relative="1" as="geometry">
                        <Array as="points">
                            <mxPoint x="110" y="550"/>
                            <mxPoint x="110" y="550"/>
                        </Array>
                        <mxPoint x="395" y="570" as="sourcePoint"/>
                        <mxPoint x="315" y="680" as="targetPoint"/>
                    </mxGeometry>
                </mxCell>
                <mxCell id="Zqey19DjZnMujm0gZ4vc-49" style="edgeStyle=orthogonalEdgeStyle;rounded=0;orthogonalLoop=1;jettySize=auto;html=1;startArrow=ERone;startFill=0;endArrow=ERzeroToMany;endFill=0;strokeWidth=1;endSize=15;startSize=15;" parent="1" source="Zqey19DjZnMujm0gZ4vc-46" target="Zqey19DjZnMujm0gZ4vc-42" edge="1">
                    <mxGeometry relative="1" as="geometry"/>
                </mxCell>
                <mxCell id="Zqey19DjZnMujm0gZ4vc-51" style="edgeStyle=orthogonalEdgeStyle;rounded=0;orthogonalLoop=1;jettySize=auto;html=1;endArrow=ERmany;endFill=0;startArrow=ERzeroToMany;startFill=0;startSize=15;endSize=15;" parent="1" source="Zqey19DjZnMujm0gZ4vc-40" target="Zqey19DjZnMujm0gZ4vc-46" edge="1">
                    <mxGeometry relative="1" as="geometry">
                        <mxPoint x="380" y="150" as="sourcePoint"/>
                    </mxGeometry>
                </mxCell>
                <mxCell id="Zqey19DjZnMujm0gZ4vc-52" value="Result&amp;nbsp;&lt;span style=&quot;color: rgb(63, 63, 63); background-color: transparent;&quot;&gt;Answer&lt;/span&gt;" style="swimlane;childLayout=stackLayout;horizontal=1;startSize=50;horizontalStack=0;rounded=1;fontSize=14;fontStyle=0;strokeWidth=2;resizeParent=0;resizeLast=1;shadow=0;dashed=0;align=center;arcSize=4;whiteSpace=wrap;html=1;" parent="1" vertex="1">
                    <mxGeometry x="550" y="110" width="160" height="140" as="geometry"/>
                </mxCell>
                <mxCell id="Zqey19DjZnMujm0gZ4vc-53" value="+ (PK) result_answer_id&lt;br&gt;+ (FK) result_id&lt;br&gt;+ (FK) answer_id&lt;div&gt;&lt;font color=&quot;#000000&quot;&gt;+ (FK) question_id&lt;br&gt;&lt;/font&gt;&lt;div&gt;+ answer&lt;/div&gt;&lt;/div&gt;" style="align=left;strokeColor=none;fillColor=none;spacingLeft=4;spacingRight=4;fontSize=12;verticalAlign=top;resizable=0;rotatable=0;part=1;html=1;whiteSpace=wrap;" parent="Zqey19DjZnMujm0gZ4vc-52" vertex="1">
                    <mxGeometry y="50" width="160" height="90" as="geometry"/>
                </mxCell>
                <mxCell id="2" style="edgeStyle=orthogonalEdgeStyle;rounded=0;orthogonalLoop=1;jettySize=auto;html=1;startArrow=ERone;startFill=0;endArrow=ERmany;endFill=0;strokeWidth=1;endSize=15;startSize=15;" parent="1" source="Zqey19DjZnMujm0gZ4vc-42" target="Zqey19DjZnMujm0gZ4vc-52" edge="1">
                    <mxGeometry relative="1" as="geometry">
                        <mxPoint x="560" y="280" as="sourcePoint"/>
                        <mxPoint x="560" y="370" as="targetPoint"/>
                    </mxGeometry>
                </mxCell>
                <mxCell id="3" value="User" style="swimlane;childLayout=stackLayout;horizontal=1;startSize=50;horizontalStack=0;rounded=1;fontSize=14;fontStyle=0;strokeWidth=2;resizeParent=0;resizeLast=1;shadow=0;dashed=0;align=center;arcSize=4;whiteSpace=wrap;html=1;" parent="1" vertex="1">
                    <mxGeometry x="300" y="-120" width="160" height="160" as="geometry"/>
                </mxCell>
                <mxCell id="4" value="+ (PK) user_id&lt;div&gt;&lt;font color=&quot;#000000&quot;&gt;+ (FK) organization_id&lt;br&gt;&lt;/font&gt;&lt;div&gt;&lt;font color=&quot;#000000&quot;&gt;+ role&lt;br&gt;&lt;/font&gt;+ name&lt;br&gt;+ username&lt;div&gt;+ password&lt;/div&gt;&lt;/div&gt;&lt;/div&gt;" style="align=left;strokeColor=none;fillColor=none;spacingLeft=4;spacingRight=4;fontSize=12;verticalAlign=top;resizable=0;rotatable=0;part=1;html=1;whiteSpace=wrap;" parent="3" vertex="1">
                    <mxGeometry y="50" width="160" height="110" as="geometry"/>
                </mxCell>
                <mxCell id="6" style="edgeStyle=orthogonalEdgeStyle;rounded=0;orthogonalLoop=1;jettySize=auto;html=1;startArrow=ERzeroToOne;startFill=0;endArrow=ERmany;endFill=0;strokeWidth=1;endSize=15;startSize=15;" parent="1" source="Zqey19DjZnMujm0gZ4vc-44" target="Zqey19DjZnMujm0gZ4vc-52" edge="1">
                    <mxGeometry relative="1" as="geometry">
                        <mxPoint x="230" y="610" as="sourcePoint"/>
                        <mxPoint x="780" y="320" as="targetPoint"/>
                        <Array as="points">
                            <mxPoint x="670" y="610"/>
                        </Array>
                    </mxGeometry>
                </mxCell>
                <mxCell id="8" style="edgeStyle=orthogonalEdgeStyle;rounded=0;orthogonalLoop=1;jettySize=auto;html=1;startArrow=ERzeroToOne;startFill=0;endArrow=ERmany;endFill=0;strokeWidth=1;endSize=15;startSize=15;" parent="1" source="Zqey19DjZnMujm0gZ4vc-40" target="Zqey19DjZnMujm0gZ4vc-52" edge="1">
                    <mxGeometry relative="1" as="geometry">
                        <mxPoint x="460" y="410" as="sourcePoint"/>
                        <mxPoint x="640" y="260" as="targetPoint"/>
                        <Array as="points">
                            <mxPoint x="240" y="370"/>
                            <mxPoint x="240" y="290"/>
                            <mxPoint x="600" y="290"/>
                        </Array>
                    </mxGeometry>
                </mxCell>
                <mxCell id="9" value="Organization" style="swimlane;childLayout=stackLayout;horizontal=1;startSize=50;horizontalStack=0;rounded=1;fontSize=14;fontStyle=0;strokeWidth=2;resizeParent=0;resizeLast=1;shadow=0;dashed=0;align=center;arcSize=4;whiteSpace=wrap;html=1;" parent="1" vertex="1">
                    <mxGeometry x="30" y="-95" width="160" height="110" as="geometry"/>
                </mxCell>
                <mxCell id="10" value="+ (PK) organization_id&lt;div&gt;+ name&lt;br&gt;+ description&lt;/div&gt;" style="align=left;strokeColor=none;fillColor=none;spacingLeft=4;spacingRight=4;fontSize=12;verticalAlign=top;resizable=0;rotatable=0;part=1;html=1;whiteSpace=wrap;" parent="9" vertex="1">
                    <mxGeometry y="50" width="160" height="60" as="geometry"/>
                </mxCell>
                <mxCell id="12" style="edgeStyle=orthogonalEdgeStyle;rounded=0;orthogonalLoop=1;jettySize=auto;html=1;startArrow=ERzeroToOne;startFill=0;endArrow=ERzeroToMany;endFill=0;strokeWidth=1;endSize=15;startSize=15;" parent="1" source="9" target="3" edge="1">
                    <mxGeometry relative="1" as="geometry">
                        <mxPoint x="200" y="190" as="sourcePoint"/>
                        <mxPoint x="310" y="190" as="targetPoint"/>
                    </mxGeometry>
                </mxCell>
                <mxCell id="13" style="edgeStyle=orthogonalEdgeStyle;rounded=0;orthogonalLoop=1;jettySize=auto;html=1;startArrow=ERzeroToOne;startFill=0;endArrow=ERzeroToMany;endFill=0;strokeWidth=1;endSize=15;startSize=15;" parent="1" source="3" target="Zqey19DjZnMujm0gZ4vc-46" edge="1">
                    <mxGeometry relative="1" as="geometry">
                        <mxPoint x="200" y="-30" as="sourcePoint"/>
                        <mxPoint x="310" y="-30" as="targetPoint"/>
                        <Array as="points">
                            <mxPoint x="240" y="-10"/>
                            <mxPoint x="240" y="130"/>
                        </Array>
                    </mxGeometry>
                </mxCell>
                <mxCell id="14" style="edgeStyle=orthogonalEdgeStyle;rounded=0;orthogonalLoop=1;jettySize=auto;html=1;startArrow=ERzeroToOne;startFill=0;endArrow=ERzeroToMany;endFill=0;strokeWidth=1;endSize=15;startSize=15;" parent="1" source="9" target="Zqey19DjZnMujm0gZ4vc-46" edge="1">
                    <mxGeometry relative="1" as="geometry">
                        <mxPoint x="200" y="-30" as="sourcePoint"/>
                        <mxPoint x="310" y="-30" as="targetPoint"/>
                    </mxGeometry>
                </mxCell>
                <mxCell id="15" value="Attribute" style="swimlane;childLayout=stackLayout;horizontal=1;startSize=50;horizontalStack=0;rounded=1;fontSize=14;fontStyle=0;strokeWidth=2;resizeParent=0;resizeLast=1;shadow=0;dashed=0;align=center;arcSize=4;whiteSpace=wrap;html=1;" vertex="1" parent="1">
                    <mxGeometry x="300" y="330" width="160" height="120" as="geometry"/>
                </mxCell>
                <mxCell id="16" value="+ (PK) attribute_id&lt;div&gt;&lt;font color=&quot;#000000&quot;&gt;+ (FK) question_id&lt;br&gt;&lt;/font&gt;+ type&lt;br&gt;&lt;div&gt;+ value&lt;/div&gt;&lt;/div&gt;" style="align=left;strokeColor=none;fillColor=none;spacingLeft=4;spacingRight=4;fontSize=12;verticalAlign=top;resizable=0;rotatable=0;part=1;html=1;whiteSpace=wrap;" vertex="1" parent="15">
                    <mxGeometry y="50" width="160" height="70" as="geometry"/>
                </mxCell>
                <mxCell id="17" style="edgeStyle=orthogonalEdgeStyle;rounded=0;orthogonalLoop=1;jettySize=auto;html=1;startArrow=ERone;startFill=0;endArrow=ERzeroToMany;endFill=0;strokeWidth=1;endSize=15;startSize=15;" edge="1" parent="1" source="Zqey19DjZnMujm0gZ4vc-40" target="15">
                    <mxGeometry relative="1" as="geometry">
                        <mxPoint x="200" y="190" as="sourcePoint"/>
                        <mxPoint x="310" y="190" as="targetPoint"/>
                        <Array as="points">
                            <mxPoint x="290" y="410"/>
                            <mxPoint x="290" y="410"/>
                        </Array>
                    </mxGeometry>
                </mxCell>
            </root>
        </mxGraphModel>
    </diagram>
</mxfile>